<?xml version="1.0" standalone="no"?><svg xmlns="http://www.w3.org/2000/svg" viewBox="0 0 1440 320"><path fill="#5000ca" fill-opacity="1" d="M0,192L11.4,208C22.9,224,46,256,69,250.7C91.4,245,114,203,137,160C160,117,183,75,206,96C228.6,117,251,203,274,208C297.1,213,320,139,343,133.3C365.7,128,389,192,411,186.7C434.3,181,457,107,480,112C502.9,117,526,203,549,240C571.4,277,594,267,617,266.7C640,267,663,277,686,234.7C708.6,192,731,96,754,90.7C777.1,85,800,171,823,181.3C845.7,192,869,128,891,90.7C914.3,53,937,43,960,58.7C982.9,75,1006,117,1029,128C1051.4,139,1074,117,1097,106.7C1120,96,1143,96,1166,90.7C1188.6,85,1211,75,1234,64C1257.1,53,1280,43,1303,37.3C1325.7,32,1349,32,1371,48C1394.3,64,1417,96,1429,112L1440,128L1440,320L1428.6,320C1417.1,320,1394,320,1371,320C1348.6,320,1326,320,1303,320C1280,320,1257,320,1234,320C1211.4,320,1189,320,1166,320C1142.9,320,1120,320,1097,320C1074.3,320,1051,320,1029,320C1005.7,320,983,320,960,320C937.1,320,914,320,891,320C868.6,320,846,320,823,320C800,320,777,320,754,320C731.4,320,709,320,686,320C662.9,320,640,320,617,320C594.3,320,571,320,549,320C525.7,320,503,320,480,320C457.1,320,434,320,411,320C388.6,320,366,320,343,320C320,320,297,320,274,320C251.4,320,229,320,206,320C182.9,320,160,320,137,320C114.3,320,91,320,69,320C45.7,320,23,320,11,320L0,320Z"></path></svg>